<svg xmlns="http://www.w3.org/2000/svg" version="1.1" xmlns:xlink="http://www.w3.org/1999/xlink" xmlns:svgjs="http://svgjs.dev/svgjs" width="1500" height="1805" viewBox="0 0 1500 1805"><g transform="matrix(1,0,0,1,-0.38078483469416824,-2.911290322580726)"><svg viewBox="0 0 206 248" data-background-color="#ffffff" preserveAspectRatio="xMidYMid meet" height="1805" width="1500" xmlns="http://www.w3.org/2000/svg" xmlns:xlink="http://www.w3.org/1999/xlink"><g id="tight-bounds" transform="matrix(1,0,0,1,0.05229445063133653,0.4000000000000057)"><svg viewBox="0 0 205.8954110987373 247.2" height="247.2" width="205.8954110987373"><g><svg viewBox="0 0 395.52 474.8650952357218" height="247.2" width="205.8954110987373"><g transform="matrix(1,0,0,1,0,279.9415506446311)"><svg viewBox="0 0 395.52 194.92354459109072" height="194.92354459109072" width="395.52"><g id="textblocktransform"><svg viewBox="0 0 395.52 194.92354459109072" height="194.92354459109072" width="395.52" id="textblock"><g><svg viewBox="0 0 395.52 142.5307091808686" height="142.5307091808686" width="395.52"><g transform="matrix(1,0,0,1,0,0)"><svg width="395.52" viewBox="3.64 -31.76 88.81 32" height="142.5307091808686" data-palette-color="#336a86"><g class="wordmark-text-0" data-fill-palette-color="primary" id="text-0"><path d="M6.76-28.91L6.76-17.02 17.9-17.02 17.9-14.72 6.76-14.72 6.76 0 3.64 0 3.64-31.35 19.92-31.35 19.46-28.91 6.76-28.91ZM35.84-28.91L31.35-28.91 31.35-2.44 35.94-2.44 35.94 0 23.48 0 23.48-2.44 28.22-2.44 28.22-28.91 23.48-28.91 23.48-31.35 35.84-31.35 35.84-28.91ZM61.27-5.35L61.27-31.35 64.11-31.35 64.11 0 61.03 0 45.23-26.39 45.23 0 42.26 0 42.26-31.35 45.58-31.35 61.27-5.35ZM77.1-31.07Q79-31.76 81.51-31.76 84.03-31.76 85.92-31.07 87.81-30.37 89.06-29.1 90.3-27.83 91.06-25.82 91.81-23.8 92.13-21.4 92.45-18.99 92.45-15.82L92.45-15.82Q92.45-12.62 92.16-10.23 91.86-7.84 91.13-5.8 90.4-3.76 89.16-2.48 87.93-1.2 86.03-0.48 84.12 0.24 81.51 0.24 78.9 0.24 76.99-0.48 75.09-1.2 73.86-2.48 72.62-3.76 71.89-5.8 71.16-7.84 70.87-10.23 70.57-12.62 70.57-15.82L70.57-15.82Q70.57-18.99 70.89-21.4 71.21-23.8 71.97-25.82 72.72-27.83 73.97-29.1 75.21-30.37 77.1-31.07ZM75.38-5.43Q77.07-2.34 81.51-2.34 85.95-2.34 87.64-5.43 89.32-8.52 89.32-15.75L89.32-15.75Q89.32-23 87.63-26.09 85.93-29.17 81.51-29.17 77.09-29.17 75.4-26.09 73.7-23 73.7-15.75L73.7-15.75Q73.7-8.52 75.38-5.43Z" fill="#336a86" data-fill-palette-color="primary"></path></g></svg></g></svg></g><g transform="matrix(1,0,0,1,0,176.17878888145134)"><svg viewBox="0 0 395.52 18.744755709639374" height="18.744755709639374" width="395.52"><g transform="matrix(1,0,0,1,0,0)"><svg width="395.52" viewBox="3.25 -32.55 699.41 33.15" height="18.744755709639374" data-palette-color="#8eaec4"><path d="M7.7-13.45L7.28 0 3.25 0 4.48-31.95 10.9-31.95 18.48-8.85 18.82-8.85 26.4-31.95 32.85-31.95 34.08 0 30.05 0 29.6-13.48 29.18-27.63 28.73-27.63 20.83-3.68 16.5-3.68 8.6-27.63 8.15-27.63 7.7-13.45ZM51.52-29.15L42.75 0 38.55 0 48.55-31.95 55.1-31.95 65.12 0 60.92 0 52.15-29.15 51.52-29.15ZM59.1-12.88L59.1-9.43 44.55-9.43 44.55-12.88 59.1-12.88ZM70.12 0L70.12-31.95 76.42-31.95 89.4-4.45 89.7-4.45 89.52-18.4 89.52-31.95 93.57-31.95 93.57 0 87.42 0 74.3-27.73 74-27.73 74.17-13.13 74.17 0 70.12 0ZM111.54-29.15L102.77 0 98.57 0 108.57-31.95 115.12-31.95 125.14 0 120.94 0 112.17-29.15 111.54-29.15ZM119.12-12.88L119.12-9.43 104.57-9.43 104.57-12.88 119.12-12.88ZM139.02 0.6L139.02 0.6Q135.39 0.6 132.94-0.86 130.49-2.33 129.25-5.13 128.02-7.93 128.02-11.9L128.02-11.9 128.02-19.45Q128.02-25.75 131.25-29.14 134.49-32.52 140.77-32.52L140.77-32.52Q143.02-32.52 144.85-32.16 146.69-31.8 148.12-31.21 149.54-30.63 150.57-29.98L150.57-29.98 150.94-26.23Q149.22-27.33 146.88-28.15 144.54-28.98 141.47-28.98L141.47-28.98Q136.82-28.98 134.53-26.5 132.24-24.03 132.24-19.38L132.24-19.38 132.24-11.93Q132.24-7.63 134.25-5.29 136.27-2.95 140.29-2.95L140.29-2.95Q142.34-2.95 143.8-3.65 145.27-4.35 146.2-5.5 147.14-6.65 147.57-8.03L147.57-8.03 147.57-15.9 148.24-14.43 140.72-14.43 140.72-17.88 151.62-17.88 151.62-5.25 147.54-5.28Q147.14-3.73 146.17-2.38 145.19-1.03 143.44-0.21 141.69 0.6 139.02 0.6ZM151.62 0L147.57 0 147.74-6.6 151.62-6.6 151.62 0ZM162.79-31.95L162.79 0 158.69 0 158.69-31.95 162.79-31.95ZM178.61-3.48L178.61 0 159.91 0 159.91-3.48 178.61-3.48ZM178.09-18.03L178.09-14.58 161.04-14.58 161.04-18.03 178.09-18.03ZM178.46-31.95L178.46-28.48 159.89-28.48 159.89-31.95 178.46-31.95ZM200.93-31.95L200.93 0 196.78 0 196.78-31.95 200.93-31.95ZM215.61-16.85L215.61-13.38 199.13-13.38 199.13-16.85 215.61-16.85ZM215.98-31.95L215.98-28.48 197.98-28.48 197.98-31.95 215.98-31.95ZM221.86-31.95L226.01-31.95 226.01 0 221.86 0 221.86-31.95ZM233.6 0L233.6-31.95 239.9-31.95 252.88-4.45 253.18-4.45 253-18.4 253-31.95 257.05-31.95 257.05 0 250.9 0 237.78-27.73 237.48-27.73 237.65-13.13 237.65 0 233.6 0ZM275.03-29.15L266.25 0 262.05 0 272.05-31.95 278.6-31.95 288.63 0 284.43 0 275.65-29.15 275.03-29.15ZM282.6-12.88L282.6-9.43 268.05-9.43 268.05-12.88 282.6-12.88ZM293.62 0L293.62-31.95 299.92-31.95 312.9-4.45 313.2-4.45 313.02-18.4 313.02-31.95 317.07-31.95 317.07 0 310.92 0 297.8-27.73 297.5-27.73 297.67-13.13 297.67 0 293.62 0ZM335.3 0.58L335.3 0.58Q329.37 0.58 326.41-2.75 323.45-6.08 323.45-12.2L323.45-12.2 323.45-19.78Q323.45-25.9 326.4-29.21 329.35-32.52 335.25-32.52L335.25-32.52Q337.15-32.52 338.71-32.18 340.27-31.83 341.5-31.28 342.72-30.73 343.57-30.13L343.57-30.13 343.92-26.28Q342.45-27.33 340.46-28.11 338.47-28.9 335.8-28.9L335.8-28.9Q331.77-28.9 329.72-26.51 327.67-24.13 327.67-19.73L327.67-19.73 327.67-12.35Q327.67-7.98 329.75-5.56 331.82-3.15 335.95-3.15L335.95-3.15Q338.6-3.15 340.63-3.93 342.67-4.7 344.17-5.83L344.17-5.83 343.82-1.88Q342.97-1.28 341.72-0.7 340.47-0.13 338.86 0.23 337.25 0.58 335.3 0.58ZM354.09-31.95L354.09 0 349.99 0 349.99-31.95 354.09-31.95ZM369.92-3.48L369.92 0 351.22 0 351.22-3.48 369.92-3.48ZM369.39-18.03L369.39-14.58 352.34-14.58 352.34-18.03 369.39-18.03ZM369.77-31.95L369.77-28.48 351.19-28.48 351.19-31.95 369.77-31.95ZM385.04 0.58L385.04 0.58Q382.74 0.58 380.83 0.2 378.92-0.18 377.42-0.73 375.92-1.28 374.92-1.83L374.92-1.83 374.49-5.95Q376.42-4.8 379.03-3.94 381.64-3.08 384.72-3.08L384.72-3.08Q388.42-3.08 390.19-4.39 391.97-5.7 391.97-8.33L391.97-8.33 391.97-8.72Q391.97-10.45 391.26-11.55 390.56-12.65 388.9-13.4 387.24-14.15 384.39-14.8L384.39-14.8Q380.79-15.65 378.63-16.81 376.47-17.98 375.5-19.73 374.54-21.48 374.54-24.08L374.54-24.08 374.54-24.3Q374.54-28.23 377.12-30.36 379.69-32.5 384.92-32.5L384.92-32.5Q388.34-32.5 390.75-31.8 393.17-31.1 394.69-30.25L394.69-30.25 395.06-26.45Q393.29-27.5 390.93-28.24 388.56-28.98 385.51-28.98L385.51-28.98Q383.09-28.98 381.59-28.4 380.09-27.83 379.42-26.75 378.74-25.68 378.74-24.15L378.74-24.15 378.74-24.05Q378.74-22.5 379.4-21.4 380.06-20.3 381.73-19.5 383.39-18.7 386.47-17.95L386.47-17.95Q389.99-17.13 392.12-16.05 394.24-14.98 395.2-13.25 396.17-11.53 396.17-8.75L396.17-8.75 396.17-8.22Q396.17-3.9 393.38-1.66 390.59 0.58 385.04 0.58ZM424.56-29.15L415.79 0 411.59 0 421.59-31.95 428.13-31.95 438.16 0 433.96 0 425.19-29.15 424.56-29.15ZM432.13-12.88L432.13-9.43 417.59-9.43 417.59-12.88 432.13-12.88ZM450.86-31.28L450.86 0 446.71 0 446.71-31.28 450.86-31.28ZM460.43-31.95L460.43-28.48 437.13-28.48 437.13-31.95 460.43-31.95ZM488.95 0.6L488.95 0.6Q482.9 0.6 479.75-2.74 476.6-6.08 476.6-12.3L476.6-12.3 476.6-19.68Q476.6-25.88 479.75-29.21 482.9-32.55 488.95-32.55L488.95-32.55Q495-32.55 498.15-29.21 501.3-25.88 501.3-19.68L501.3-19.68 501.3-12.3Q501.3-6.08 498.15-2.74 495 0.6 488.95 0.6ZM488.95-2.88L488.95-2.88Q493-2.88 495.05-5.29 497.1-7.7 497.1-12.13L497.1-12.13 497.1-19.85Q497.1-24.28 495.05-26.68 493-29.08 488.95-29.08L488.95-29.08Q484.93-29.08 482.88-26.68 480.83-24.28 480.83-19.85L480.83-19.85 480.83-12.13Q480.83-7.7 482.88-5.29 484.93-2.88 488.95-2.88ZM507.7 0L507.7-31.95 514-31.95 526.98-4.45 527.27-4.45 527.1-18.4 527.1-31.95 531.15-31.95 531.15 0 525 0 511.88-27.73 511.57-27.73 511.75-13.13 511.75 0 507.7 0ZM542.8-31.95L542.8 0 538.7 0 538.7-31.95 542.8-31.95ZM558.62-3.48L558.62 0 539.92 0 539.92-3.48 558.62-3.48ZM558.1-18.03L558.1-14.58 541.05-14.58 541.05-18.03 558.1-18.03ZM558.47-31.95L558.47-28.48 539.9-28.48 539.9-31.95 558.47-31.95ZM588.67-10.63L588.67-10.63 579.49-10.63 579.49-14.08 588.57-14.08Q591.84-14.08 593.32-15.71 594.79-17.35 594.79-20.23L594.79-20.23 594.79-22.4Q594.79-25.33 593.33-26.93 591.87-28.53 588.62-28.53L588.62-28.53 579.47-28.53 579.47-31.95 588.69-31.95Q594.04-31.95 596.48-29.44 598.92-26.93 598.92-22.53L598.92-22.53 598.92-20.13Q598.92-15.68 596.45-13.15 593.99-10.63 588.67-10.63ZM580.89-11.2L580.89 0 576.79 0 576.79-31.95 580.87-31.95 580.87-13.05 580.89-11.2ZM604.81-31.95L608.96-31.95 608.96 0 604.81 0 604.81-31.95ZM623.89 0L607.04 0 607.04-3.53 623.89-3.53 623.89 0ZM639.69-29.15L630.91 0 626.71 0 636.71-31.95 643.26-31.95 653.29 0 649.09 0 640.31-29.15 639.69-29.15ZM647.26-12.88L647.26-9.43 632.71-9.43 632.71-12.88 647.26-12.88ZM668.03 0.58L668.03 0.58Q662.11 0.58 659.15-2.75 656.18-6.08 656.18-12.2L656.18-12.2 656.18-19.78Q656.18-25.9 659.13-29.21 662.08-32.52 667.98-32.52L667.98-32.52Q669.88-32.52 671.45-32.18 673.01-31.83 674.23-31.28 675.46-30.73 676.31-30.13L676.31-30.13 676.66-26.28Q675.18-27.33 673.2-28.11 671.21-28.9 668.53-28.9L668.53-28.9Q664.51-28.9 662.46-26.51 660.41-24.13 660.41-19.73L660.41-19.73 660.41-12.35Q660.41-7.98 662.48-5.56 664.56-3.15 668.68-3.15L668.68-3.15Q671.33-3.15 673.37-3.93 675.41-4.7 676.91-5.83L676.91-5.83 676.56-1.88Q675.71-1.28 674.46-0.7 673.21-0.13 671.6 0.23 669.98 0.58 668.03 0.58ZM686.83-31.95L686.83 0 682.73 0 682.73-31.95 686.83-31.95ZM702.66-3.48L702.66 0 683.96 0 683.96-3.48 702.66-3.48ZM702.13-18.03L702.13-14.58 685.08-14.58 685.08-18.03 702.13-18.03ZM702.51-31.95L702.51-28.48 683.93-28.48 683.93-31.95 702.51-31.95Z" opacity="1" transform="matrix(1,0,0,1,0,0)" fill="#8eaec4" class="slogan-text-1" data-fill-palette-color="secondary" id="text-1"></path></svg></g></svg></g></svg></g></svg></g><g transform="matrix(1,0,0,1,91.43730437826717,0)"><svg viewBox="0 0 212.64539124346564 212.64539124346564" height="212.64539124346564" width="212.64539124346564"><g><svg></svg></g><g id="icon-0"><svg viewBox="0 0 212.64539124346564 212.64539124346564" height="212.64539124346564" width="212.64539124346564"><g><path d="M0 106.323c0-58.72 47.602-106.323 106.323-106.323 58.72 0 106.323 47.602 106.322 106.323 0 58.72-47.602 106.323-106.322 106.322-58.72 0-106.323-47.602-106.323-106.322zM106.323 199.792c51.622 0 93.469-41.848 93.469-93.469 0-51.622-41.848-93.469-93.469-93.469-51.622 0-93.469 41.848-93.469 93.469 0 51.622 41.848 93.469 93.469 93.469z" data-fill-palette-color="accent" fill="#283132" stroke="transparent"></path></g><g transform="matrix(1,0,0,1,58.27221795900408,58.47524814631139)"><svg viewBox="0 0 96.10095532545748 95.69489495084287" height="95.69489495084287" width="96.10095532545748"><g><svg xmlns="http://www.w3.org/2000/svg" xmlns:xlink="http://www.w3.org/1999/xlink" version="1.1" x="0" y="0" viewBox="0.5 0.7 71 70.7" enable-background="new 0 0 72 72" xml:space="preserve" height="95.69489495084287" width="96.10095532545748" class="icon-dxe-0" data-fill-palette-color="accent" id="dxe-0"><g fill="#283132" data-fill-palette-color="accent"><path fill="#283132" d="M42 32.3H43.6C43.7 32.3 43.8 32.2 43.8 32.1V30C43.8 29.9 43.9 29.8 44 29.8 45.4 29.6 46.6 29.1 47.4 28.3 48.3 27.4 48.7 26.3 48.7 24.8S48.3 22.2 47.4 21.4 45.2 19.8 43.3 19.1C42.3 18.7 41.6 18.3 41.3 17.9 40.9 17.5 40.7 17 40.7 16.3S40.9 15.1 41.2 14.7 42.1 14.1 42.8 14.1 44 14.4 44.4 14.9 45 16.1 45 16.9C45 17 45.1 17.2 45.3 17.2H48.3C48.5 17.2 48.6 17.1 48.6 16.9V16.8C48.6 15.3 48.2 14.1 47.4 13.2 46.6 12.2 45.5 11.6 44.2 11.4 44.1 11.4 44 11.3 44 11.2V8.8C44 8.7 43.9 8.6 43.8 8.6H42.2C42.1 8.6 42 8.7 42 8.8V11.1C42 11.2 41.9 11.3 41.8 11.3 40.4 11.5 39.2 12 38.4 12.9 37.5 13.8 37.1 14.9 37.1 16.3 37.1 17.8 37.5 19 38.4 19.8S40.7 21.4 42.5 22C43.4 22.4 44.1 22.8 44.5 23.2S45.1 24.2 45.1 24.8C45.1 25.5 44.9 26 44.5 26.4S43.5 27 42.8 27C42 27 41.4 26.8 40.9 26.3S40.2 25.1 40.1 24.1C40.1 24 40 23.9 39.9 23.9H36.7C36.6 23.9 36.5 24 36.5 24.1V24.6C36.6 26.1 37.1 27.3 38 28.1 39 29 40.2 29.6 41.7 29.7 41.8 29.7 41.9 29.8 41.9 29.9V32C41.8 32.2 41.9 32.3 42 32.3" data-fill-palette-color="accent"></path><path fill="#283132" d="M36.4 51.1L34.2 50.9C33.7 50.9 33.4 50.5 33.3 50.1 33.1 48.9 32.7 47.8 32.2 46.7 32 46.3 32.1 45.8 32.5 45.5L34.2 44.1C34.6 43.7 34.7 43.1 34.3 42.7L31.4 39.3C31 38.9 30.4 38.8 30 39.2L28.3 40.6C28 40.9 27.5 40.9 27.1 40.6 26.1 39.9 25.1 39.4 24 39 23.6 38.8 23.3 38.4 23.3 38L23.5 35.8C23.5 35.3 23.1 34.8 22.6 34.7L18.2 34.3C17.7 34.3 17.2 34.7 17.1 35.2L17 37.4C17 37.9 16.6 38.2 16.2 38.3 15 38.5 13.9 38.9 12.8 39.4 12.4 39.6 11.9 39.5 11.6 39.1L10.2 37.4C9.8 37 9.2 36.9 8.8 37.3L5.4 40.2C5 40.6 4.9 41.2 5.3 41.6L6.7 43.3C7 43.6 7 44.1 6.7 44.5 6 45.5 5.5 46.5 5.1 47.6 4.9 48 4.5 48.3 4.1 48.3L2 48.1C1.5 48.1 1 48.5 0.9 49L0.5 53.4C0.5 53.9 0.9 54.4 1.4 54.5L3.6 54.7C4.1 54.7 4.4 55.1 4.5 55.5 4.7 56.7 5.1 57.8 5.6 58.9 5.8 59.3 5.7 59.8 5.3 60.1L3.6 61.5C3.2 61.9 3.1 62.5 3.5 62.9L6.4 66.3C6.8 66.7 7.4 66.8 7.8 66.4L9.4 65C9.7 64.7 10.2 64.7 10.6 65 11.6 65.7 12.6 66.2 13.7 66.6 14.1 66.8 14.4 67.2 14.4 67.6L14.2 69.8C14.2 70.3 14.6 70.8 15.1 70.9L19.5 71.3C20 71.3 20.5 70.9 20.6 70.4L20.8 68.2C20.8 67.7 21.2 67.4 21.6 67.3 22.8 67.1 23.9 66.7 25 66.2 25.4 66 25.9 66.1 26.2 66.5L27.6 68.2C28 68.6 28.6 68.7 29 68.3L32.4 65.4C32.8 65 32.9 64.4 32.5 64L31.1 62.3C30.8 62 30.8 61.5 31.1 61.1 31.8 60.1 32.3 59.1 32.7 58 32.9 57.6 33.3 57.3 33.7 57.3L35.9 57.5C36.4 57.5 36.9 57.1 37 56.6L37.4 52.2C37.4 51.6 37 51.1 36.4 51.1M18.1 62C13 61.5 9.3 57 9.7 52 10.1 46.9 14.6 43.2 19.7 43.6S28.5 48.5 28.1 53.6C27.7 58.6 23.2 62.4 18.1 62" data-fill-palette-color="accent"></path><path fill="#283132" d="M42.7 0.7C31.8 0.7 22.9 9.6 22.9 20.5S31.8 40.3 42.7 40.3 62.5 31.4 62.5 20.5C62.5 9.5 53.6 0.7 42.7 0.7M42.7 35C34.7 35 28.2 28.5 28.2 20.5S34.7 6 42.7 6 57.2 12.5 57.2 20.5 50.7 35 42.7 35" data-fill-palette-color="accent"></path><g fill="#283132" data-fill-palette-color="accent"><path fill="#283132" d="M56.3 41C47.9 41 41.1 47.8 41.1 56.2S47.9 71.4 56.3 71.4 71.5 64.6 71.5 56.2 64.7 41 56.3 41M56.3 67.3C50.2 67.3 45.2 62.3 45.2 56.2S50.2 45.1 56.3 45.1 67.4 50.1 67.4 56.2C67.5 62.3 62.5 67.3 56.3 67.3" data-fill-palette-color="accent"></path><g fill="#283132" data-fill-palette-color="accent"><path fill="#283132" d="M60.3 61.9C59.8 61.9 59.3 61.7 58.9 61.4L54.9 57.6C54.5 57.2 54.3 56.7 54.3 56.2V49.3C54.3 48.3 55 47.4 55.9 47.3 57.1 47.1 58.2 48 58.2 49.2V55.1C58.2 55.3 58.3 55.4 58.4 55.5L61.5 58.5C62.3 59.2 62.4 60.5 61.7 61.3 61.4 61.7 60.9 61.9 60.3 61.9" data-fill-palette-color="accent"></path></g></g></g></svg></g></svg></g></svg></g></svg></g><g></g></svg></g><defs></defs></svg><rect width="205.8954110987373" height="247.2" fill="none" stroke="none" visibility="hidden"></rect></g></svg></g></svg>